<svg width="284" height="31" viewBox="0 0 284 31" fill="none" xmlns="http://www.w3.org/2000/svg">
<path d="M31.2081 0.863175H32.6227V-0.550542H31.2081V0.863175ZM31.2081 7.67099V9.08471H32.6227V7.67099H31.2081ZM10.8844 7.67099V6.25727H9.4698V7.67099H10.8844ZM10.8844 11.1497H9.4698V12.5634H10.8844V11.1497ZM30.7963 11.1497H32.2109V9.73599H30.7963V11.1497ZM30.7963 17.9201V19.3338H32.2109V17.9201H30.7963ZM10.8844 17.9201V16.5064H9.4698V17.9201H10.8844ZM10.8844 21.7355H9.4698V23.1492H10.8844V21.7355ZM31.5074 21.7355H32.922V20.3218H31.5074V21.7355ZM31.5074 28.6928V30.1067H32.922V28.6928H31.5074ZM0.404413 28.6928H-1.01017V30.1067H0.404413V28.6928ZM0.404413 0.863175V-0.550542H-1.01017V0.863175H0.404413ZM29.7934 0.863175V7.67099H32.6227V0.863175H29.7934ZM31.2081 6.25727H10.8844V9.08471H31.2081V6.25727ZM9.4698 7.67099V11.1497H12.299V7.67099H9.4698ZM10.8844 12.5634H30.7963V9.73599H10.8844V12.5634ZM29.3818 11.1497V17.9201H32.2109V11.1497H29.3818ZM30.7963 16.5064H10.8844V19.3338H30.7963V16.5064ZM9.4698 17.9201V21.7355H12.299V17.9201H9.4698ZM10.8844 23.1492H31.5074V20.3218H10.8844V23.1492ZM30.0929 21.7355V28.6928H32.922V21.7355H30.0929ZM31.5074 27.2791H0.404413V30.1067H31.5074V27.2791ZM1.81899 28.6928V0.863175H-1.01017V28.6928H1.81899ZM0.404413 2.27689H31.2081V-0.550542H0.404413V2.27689ZM46.482 0.863175L47.4717 -0.14694L47.0594 -0.550542H46.482V0.863175ZM62.6512 16.6858L61.6615 17.6958L64.0658 20.0485V16.6858H62.6512ZM62.6512 0.863175V-0.550542H61.2367V0.863175H62.6512ZM73.206 0.863175H74.6206V-0.550542H73.206V0.863175ZM73.206 28.6928V30.1067H74.6206V28.6928H73.206ZM62.5763 28.6928L61.5925 29.7088L62.0039 30.1067H62.5763V28.6928ZM45.1347 11.823L46.1184 10.8071L43.7201 8.48741V11.823H45.1347ZM45.1347 28.6928V30.1067H46.5493V28.6928H45.1347ZM34.5798 28.6928H33.1652V30.1067H34.5798V28.6928ZM34.5798 0.863175V-0.550542H33.1652V0.863175H34.5798ZM45.4923 1.87329L61.6615 17.6958L63.6409 15.6757L47.4717 -0.14694L45.4923 1.87329ZM64.0658 16.6858V0.863175H61.2367V16.6858H64.0658ZM62.6512 2.27689H73.206V-0.550542H62.6512V2.27689ZM71.7914 0.863175V28.6928H74.6206V0.863175H71.7914ZM73.206 27.2791H62.5763V30.1067H73.206V27.2791ZM63.56 27.6771L46.1184 10.8071L44.1509 12.8389L61.5925 29.7088L63.56 27.6771ZM43.7201 11.823V28.6928H46.5493V11.823H43.7201ZM45.1347 27.2791H34.5798V30.1067H45.1347V27.2791ZM35.9944 28.6928V0.863175H33.1652V28.6928H35.9944ZM34.5798 2.27689H46.482V-0.550542H34.5798V2.27689ZM88.5866 28.6928L87.324 29.3306L87.7165 30.1067H88.5866V28.6928ZM74.5134 0.863175V-0.550542H72.2135L73.2508 1.50083L74.5134 0.863175ZM86.5653 0.863175L87.8398 0.249661L87.454 -0.550542H86.5653V0.863175ZM95.9225 20.2767L94.648 20.8901L95.9621 23.6165L97.2111 20.8598L95.9225 20.2767ZM104.718 0.863175V-0.550542H103.806L103.429 0.280045L104.718 0.863175ZM115.76 0.863175L117.04 1.46356L117.986 -0.550542H115.76V0.863175ZM102.697 28.6928V30.1067H103.596L103.978 29.2933L102.697 28.6928ZM89.849 28.0552L75.7759 0.225521L73.2508 1.50083L87.324 29.3306L89.849 28.0552ZM74.5134 2.27689H86.5653V-0.550542H74.5134V2.27689ZM85.2909 1.47669L94.648 20.8901L97.1969 19.6631L87.8398 0.249661L85.2909 1.47669ZM97.2111 20.8598L106.007 1.44631L103.429 0.280045L94.6338 19.6935L97.2111 20.8598ZM104.718 2.27689H115.76V-0.550542H104.718V2.27689ZM114.479 0.262794L101.416 28.0925L103.978 29.2933L117.04 1.46356L114.479 0.262794ZM102.697 27.2791H88.5866V30.1067H102.697V27.2791ZM127.668 28.6928V30.1067H129.083V28.6928H127.668ZM117.076 28.6928H115.661V30.1067H117.076V28.6928ZM117.076 0.863175V-0.550542H115.661V0.863175H117.076ZM127.668 0.863175H129.083V-0.550542H127.668V0.863175ZM127.668 27.2791H117.076V30.1067H127.668V27.2791ZM118.491 28.6928V0.863175H115.661V28.6928H118.491ZM117.076 2.27689H127.668V-0.550542H117.076V2.27689ZM126.254 0.863175V28.6928H129.083V0.863175H126.254ZM140.353 28.7303L140.105 30.1221L140.108 30.1227L140.353 28.7303ZM135.712 27.4585L135.164 28.762L135.173 28.7658L135.712 27.4585ZM132.718 25.663L131.752 26.6966L131.762 26.7054L131.771 26.7139L132.718 25.663ZM130.958 23.531L129.71 24.1963L129.724 24.2213L129.738 24.2458L130.958 23.531ZM130.173 21.3241L131.566 21.0838L130.173 21.3241ZM129.985 18.9675V17.5538H128.571V18.9675H129.985ZM141.663 18.9675L143.075 18.8734L142.987 17.5538H141.663V18.9675ZM141.925 20.2393L140.576 20.665L140.59 20.7088L140.606 20.7517L141.925 20.2393ZM142.898 21.5111L141.987 22.5924L142.018 22.6181L142.049 22.6421L142.898 21.5111ZM144.995 22.4836L145.408 21.1315L144.995 22.4836ZM152.518 22.6706L152.285 21.2761L152.278 21.2772L152.518 22.6706ZM154.575 22.1095L155.181 23.3871L155.195 23.3807L155.209 23.374L154.575 22.1095ZM155.548 21.2867L156.814 21.9189L156.824 21.8991L156.833 21.8791L155.548 21.2867ZM155.548 19.304L154.243 19.8479L154.272 19.9161L154.307 19.9811L155.548 19.304ZM152.704 17.995L152.498 19.3936L152.504 19.3945L152.704 17.995ZM149.224 17.7331L149.271 16.3201L149.264 16.32L149.224 17.7331ZM144.059 17.5834L144.099 16.1703H144.098L144.059 17.5834ZM137.359 16.7606L136.97 18.1199L136.982 18.1231L136.993 18.1262L137.359 16.7606ZM133.167 14.8903L132.331 16.0313L132.345 16.0406L133.167 14.8903ZM130.996 12.3093L129.687 12.8459L129.693 12.8601L129.699 12.8742L130.996 12.3093ZM131.071 5.65108L132.366 6.21941L132.371 6.20798L131.071 5.65108ZM133.541 2.92048L134.308 4.10805L133.541 2.92048ZM138.444 1.08761L138.744 2.46931L138.76 2.46568L138.444 1.08761ZM158.206 1.12501L158.519 -0.253548L158.206 1.12501ZM163.371 3.10751L162.593 4.28741L163.371 3.10751ZM165.953 5.95034L164.66 6.52173L164.666 6.53301L165.953 5.95034ZM166.665 9.46645V10.8802H168.079V9.46645H166.665ZM155.1 9.46645L153.693 9.60713L153.819 10.8802H155.1V9.46645ZM154.838 8.60613L153.506 9.0816L153.527 9.14115L153.554 9.19856L154.838 8.60613ZM153.939 7.63358L153.111 8.77965L153.147 8.80539L153.185 8.82886L153.939 7.63358ZM151.918 6.84806L151.566 8.21724L151.589 8.22305L151.611 8.22811L151.918 6.84806ZM144.658 6.69844L144.833 8.10124L144.851 8.09897L144.869 8.0962L144.658 6.69844ZM142.823 7.1473L143.362 8.45455L143.394 8.44129L143.426 8.42647L142.823 7.1473ZM142 7.7832L140.735 7.15098L140.708 7.20357L140.686 7.25816L142 7.7832ZM142.038 9.39164L140.772 10.0239L140.796 10.0724L140.824 10.119L142.038 9.39164ZM142.898 10.0649L142.295 11.3441L142.309 11.3506L142.323 11.3568L142.898 10.0649ZM144.733 10.5512L144.507 11.9469L144.532 11.9509L144.556 11.954L144.733 10.5512ZM147.914 10.7382L147.946 9.32487L147.94 9.32478L147.914 10.7382ZM152.928 10.8505L152.969 9.43728L152.96 9.4371L152.928 10.8505ZM159.666 11.4863L159.403 12.8754L159.406 12.8761L159.666 11.4863ZM164.233 13.0574L163.509 14.272L163.524 14.2809L163.539 14.2895L164.233 13.0574ZM166.815 15.601L165.555 16.2454L165.562 16.2575L165.568 16.2693L166.815 15.601ZM167.002 23.2317L168.326 23.7313L168.328 23.7217L167.002 23.2317ZM164.494 26.2615L165.306 27.4198L165.321 27.4088L164.494 26.2615ZM159.254 28.3937L159.59 29.7669L159.254 28.3937ZM146.978 27.8028C144.461 27.8028 142.34 27.6438 140.598 27.3379L140.108 30.1227C142.058 30.4652 144.354 30.6302 146.978 30.6302V27.8028ZM140.601 27.3385C138.847 27.0263 137.404 26.6259 136.251 26.1514L135.173 28.7658C136.565 29.3386 138.216 29.7859 140.105 30.1221L140.601 27.3385ZM136.26 26.1551C135.111 25.673 134.262 25.1503 133.664 24.6123L131.771 26.7139C132.67 27.5225 133.817 28.1967 135.164 28.762L136.26 26.1551ZM133.683 24.6295C133.013 24.0048 132.521 23.3985 132.179 22.816L129.738 24.2458C130.245 25.1097 130.925 25.9248 131.752 26.6966L133.683 24.6295ZM132.207 22.8656C131.868 22.2304 131.662 21.6374 131.566 21.0838L128.778 21.5642C128.933 22.457 129.251 23.3354 129.71 24.1963L132.207 22.8656ZM131.566 21.0838C131.452 20.4229 131.4 19.8439 131.4 19.3415H128.571C128.571 20.0361 128.643 20.7787 128.778 21.5642L131.566 21.0838ZM131.4 19.3415V18.9675H128.571V19.3415H131.4ZM129.985 20.3812H141.663V17.5538H129.985V20.3812ZM140.251 19.0615C140.286 19.5779 140.403 20.1161 140.576 20.665L143.274 19.8135C143.149 19.4148 143.09 19.1052 143.075 18.8734L140.251 19.0615ZM140.606 20.7517C140.888 21.4756 141.382 22.0833 141.987 22.5924L143.81 20.4296C143.466 20.1408 143.311 19.9006 143.243 19.7269L140.606 20.7517ZM142.049 22.6421C142.728 23.1509 143.597 23.5351 144.581 23.8357L145.408 21.1315C144.595 20.8835 144.066 20.6192 143.747 20.3801L142.049 22.6421ZM144.581 23.8357C145.67 24.1682 147.038 24.3087 148.625 24.3087V21.4813C147.168 21.4813 146.115 21.3476 145.408 21.1315L144.581 23.8357ZM148.625 24.3087H148.962V21.4813H148.625V24.3087ZM148.962 24.3087C150.492 24.3087 151.769 24.2333 152.756 24.064L152.278 21.2772C151.52 21.4073 150.425 21.4813 148.962 21.4813V24.3087ZM152.75 24.0651C153.697 23.9073 154.534 23.694 155.181 23.3871L153.97 20.8318C153.67 20.9739 153.133 21.1347 152.285 21.2761L152.75 24.0651ZM155.209 23.374C155.816 23.0709 156.463 22.6209 156.814 21.9189L154.284 20.6544C154.314 20.5934 154.333 20.592 154.28 20.6376C154.226 20.6834 154.122 20.756 153.943 20.8451L155.209 23.374ZM156.833 21.8791C157.067 21.3735 157.188 20.835 157.188 20.2767H154.36C154.36 20.4165 154.33 20.5513 154.265 20.6942L156.833 21.8791ZM157.188 20.2767V20.2393H154.36V20.2767H157.188ZM157.188 20.2393C157.188 19.6818 157.067 19.1326 156.79 18.6272L154.307 19.9811C154.33 20.0243 154.36 20.0985 154.36 20.2393H157.188ZM156.854 18.7603C156.544 18.0157 155.915 17.5509 155.32 17.2541L154.056 19.7831C154.195 19.8531 154.262 19.9056 154.286 19.9274C154.307 19.9463 154.275 19.9226 154.243 19.8479L156.854 18.7603ZM155.32 17.2541C154.67 16.929 153.832 16.7279 152.905 16.5955L152.504 19.3945C153.322 19.5114 153.808 19.6594 154.056 19.7831L155.32 17.2541ZM152.91 16.5963C151.986 16.4604 150.765 16.3708 149.271 16.3201L149.175 19.146C150.627 19.1951 151.727 19.2801 152.498 19.3936L152.91 16.5963ZM149.264 16.32L144.099 16.1703L144.017 18.9966L149.182 19.1463L149.264 16.32ZM144.098 16.1703C141.467 16.0972 139.352 15.8302 137.724 15.3949L136.993 18.1262C138.908 18.6384 141.261 18.92 144.019 18.9966L144.098 16.1703ZM137.747 15.4012C136.097 14.9301 134.864 14.3642 133.989 13.7399L132.345 16.0406C133.566 16.9125 135.127 17.5934 136.97 18.1199L137.747 15.4012ZM134.002 13.7493C133.142 13.1202 132.599 12.4466 132.293 11.7444L129.699 12.8742C130.241 14.1171 131.146 15.1641 132.331 16.0311L134.002 13.7493ZM132.305 11.7727C131.978 10.9778 131.812 10.126 131.812 9.20461H128.982C128.982 10.4777 129.215 11.6956 129.687 12.8459L132.305 11.7727ZM131.812 9.20461V8.86797H128.982V9.20461H131.812ZM131.812 8.86797C131.812 7.94044 131.996 7.06175 132.366 6.21939L129.775 5.08279C129.247 6.28526 128.982 7.55116 128.982 8.86797H131.812ZM132.371 6.20798C132.684 5.47721 133.288 4.76684 134.308 4.10805L132.774 1.7329C131.399 2.62022 130.355 3.73025 129.771 5.0942L132.371 6.20798ZM134.308 4.10805C135.312 3.46061 136.766 2.89788 138.744 2.46921L138.144 -0.293992C135.98 0.175064 134.166 0.834253 132.774 1.7329L134.308 4.10805ZM138.76 2.46568C140.689 2.02449 143.229 1.79061 146.416 1.79061V-1.03681C143.115 -1.03681 140.342 -0.796885 138.129 -0.290462L138.76 2.46568ZM146.416 1.79061H149.747V-1.03681H146.416V1.79061ZM149.747 1.79061C153.134 1.79061 155.839 2.03703 157.893 2.50357L158.519 -0.253548C156.182 -0.784487 153.247 -1.03681 149.747 -1.03681V1.79061ZM157.893 2.50357C159.998 2.98179 161.539 3.59301 162.593 4.28741L164.151 1.9276C162.708 0.976164 160.807 0.265712 158.519 -0.253548L157.893 2.50357ZM162.593 4.28741C163.674 5.00163 164.322 5.75717 164.66 6.5217L167.248 5.37895C166.638 3.99891 165.564 2.85923 164.151 1.9276L162.593 4.28741ZM164.666 6.53301C165.061 7.40621 165.25 8.28051 165.25 9.16721H168.079C168.079 7.85946 167.795 6.58917 167.243 5.36764L164.666 6.53301ZM165.25 9.16721V9.46645H168.079V9.16721H165.25ZM166.665 8.05274H155.1V10.8802H166.665V8.05274ZM156.508 9.32578C156.462 8.86901 156.313 8.42509 156.122 8.0137L153.554 9.19856C153.663 9.43553 153.689 9.56515 153.693 9.60713L156.508 9.32578ZM156.169 8.13065C155.897 7.36564 155.306 6.82406 154.695 6.43829L153.185 8.82886C153.343 8.92931 153.434 9.00944 153.48 9.06004C153.524 9.10843 153.519 9.1169 153.506 9.0816L156.169 8.13065ZM154.767 6.4875C154.092 6.0002 153.203 5.68522 152.225 5.46801L151.611 8.22811C152.43 8.4099 152.888 8.61859 153.111 8.77965L154.767 6.4875ZM152.271 5.47889C151.231 5.21187 149.912 5.0977 148.362 5.0977V7.92513C149.809 7.92513 150.858 8.03539 151.566 8.21724L152.271 5.47889ZM148.362 5.0977H147.989V7.92513H148.362V5.0977ZM147.989 5.0977C146.561 5.0977 145.37 5.16066 144.446 5.30068L144.869 8.0962C145.592 7.98686 146.622 7.92513 147.989 7.92513V5.0977ZM144.482 5.29564C143.625 5.40264 142.842 5.57564 142.221 5.86815L143.426 8.42647C143.652 8.31998 144.092 8.19374 144.833 8.10124L144.482 5.29564ZM142.284 5.84008C141.734 6.0665 141.084 6.45262 140.735 7.15098L143.265 8.41543C143.213 8.52144 143.155 8.56273 143.164 8.55586C143.168 8.55274 143.185 8.54071 143.218 8.52209C143.252 8.50355 143.299 8.48051 143.362 8.45455L142.284 5.84008ZM140.686 7.25816C140.519 7.67813 140.435 8.11847 140.435 8.56872H143.264C143.264 8.47035 143.282 8.38702 143.313 8.30825L140.686 7.25816ZM140.435 8.56872V8.60613H143.264V8.56872H140.435ZM140.435 8.60613C140.435 9.1036 140.551 9.58154 140.772 10.0239L143.303 8.75941C143.274 8.703 143.264 8.65726 143.264 8.60613H140.435ZM140.824 10.119C141.181 10.7147 141.759 11.0918 142.295 11.3441L143.501 8.78579C143.359 8.71896 143.277 8.66526 143.236 8.63369C143.196 8.60229 143.217 8.60835 143.25 8.6643L140.824 10.119ZM142.323 11.3568C142.93 11.6261 143.675 11.8128 144.507 11.9469L144.957 9.15554C144.241 9.04023 143.765 8.90274 143.473 8.77307L142.323 11.3568ZM144.556 11.954C145.426 12.0626 146.541 12.1264 147.887 12.1517L147.94 9.32478C146.64 9.30026 145.635 9.23935 144.908 9.14842L144.556 11.954ZM147.882 12.1516L152.898 12.2638L152.96 9.4371L147.946 9.32487L147.882 12.1516ZM152.889 12.2636C155.487 12.3371 157.653 12.5445 159.403 12.8754L159.93 10.0973C157.986 9.72991 155.661 9.51345 152.969 9.43731L152.889 12.2636ZM159.406 12.8761C161.174 13.2058 162.523 13.6854 163.509 14.272L164.957 11.8429C163.597 11.0329 161.901 10.4652 159.925 10.0966L159.406 12.8761ZM163.539 14.2895C164.542 14.8537 165.182 15.5151 165.555 16.2454L168.074 14.9565C167.4 13.642 166.318 12.6076 164.926 11.8252L163.539 14.2895ZM165.568 16.2693C165.987 17.0483 166.224 18.0189 166.224 19.2293H169.052C169.052 17.6467 168.741 16.1984 168.061 14.9326L165.568 16.2693ZM166.224 19.2293V19.753H169.052V19.2293H166.224ZM166.224 19.753C166.224 20.7506 166.044 21.7445 165.675 22.7417L168.328 23.7217C168.809 22.4247 169.052 21.0995 169.052 19.753H166.224ZM165.679 22.7321C165.377 23.5301 164.752 24.3336 163.668 25.1143L165.321 27.4088C166.732 26.394 167.779 25.1776 168.326 23.7313L165.679 22.7321ZM163.683 25.1034C162.633 25.8376 161.073 26.494 158.919 27.0204L159.59 29.7669C161.927 29.1961 163.86 28.4311 165.306 27.4197L163.683 25.1034ZM158.919 27.0204C156.828 27.5312 153.996 27.8028 150.384 27.8028V30.6302C154.108 30.6302 157.19 30.3534 159.59 29.7669L158.919 27.0204ZM150.384 27.8028H146.978V30.6302H150.384V27.8028ZM187.245 7.67099L188.516 7.05069L187.23 4.41731L185.968 7.06279L187.245 7.67099ZM182.679 17.2469L181.402 16.6386L180.439 18.6606H182.679V17.2469ZM191.924 17.2469V18.6606H194.189L193.195 16.6265L191.924 17.2469ZM195.331 24.2042L196.603 23.589L196.218 22.7905H195.331V24.2042ZM179.423 24.2042V22.7905H178.529L178.146 23.5976L179.423 24.2042ZM177.29 28.6928V30.1067H178.184L178.568 29.2995L177.29 28.6928ZM166.51 28.6928L165.242 28.0662L164.233 30.1067H166.51V28.6928ZM180.284 0.863175V-0.550542H179.406L179.016 0.236398L180.284 0.863175ZM194.582 0.863175L195.835 0.208145L195.438 -0.550542H194.582V0.863175ZM209.141 28.6928V30.1067H211.477L210.395 28.0378L209.141 28.6928ZM197.501 28.6928L196.227 29.3081L196.613 30.1067H197.501V28.6928ZM185.968 7.06279L181.402 16.6386L183.957 17.855L188.523 8.27918L185.968 7.06279ZM182.679 18.6606H191.924V15.8332H182.679V18.6606ZM193.195 16.6265L188.516 7.05069L185.974 8.29128L190.653 17.8671L193.195 16.6265ZM195.331 22.7905H179.423V25.6179H195.331V22.7905ZM178.146 23.5976L176.012 28.0864L178.568 29.2995L180.701 24.8108L178.146 23.5976ZM177.29 27.2791H166.51V30.1067H177.29V27.2791ZM167.779 29.3196L181.553 1.48995L179.016 0.236398L165.242 28.0662L167.779 29.3196ZM180.284 2.27689H194.582V-0.550542H180.284V2.27689ZM193.327 1.51821L207.888 29.3479L210.395 28.0378L195.835 0.208145L193.327 1.51821ZM209.141 27.2791H197.501V30.1067H209.141V27.2791ZM198.775 28.0778L196.603 23.589L194.057 24.8195L196.227 29.3081L198.775 28.0778ZM218.914 28.5807L218.605 29.9603L218.609 29.9612L218.914 28.5807ZM213.973 26.8975L213.322 28.1529L213.331 28.1575L213.34 28.1619L213.973 26.8975ZM210.491 24.4286L209.465 25.401L209.478 25.4148L209.492 25.4283L210.491 24.4286ZM208.321 21.4362L207.068 22.0922L208.321 21.4362ZM207.161 18.2568L205.776 18.5463L207.161 18.2568ZM207.124 11.0375L205.739 10.7479L205.736 10.7634L205.733 10.7789L207.124 11.0375ZM208.283 7.89542L207.037 7.22698L208.283 7.89542ZM210.529 5.0152L211.502 6.04158L211.516 6.02808L210.529 5.0152ZM214.122 2.58382L213.516 1.30661L213.508 1.31071L214.122 2.58382ZM219.362 0.937986L219.092 -0.449568L219.088 -0.448932L219.362 0.937986ZM235.344 0.863175L235.106 2.25673L235.109 2.2572L235.344 0.863175ZM240.622 2.28458L240.082 3.59088L240.09 3.59489L240.1 3.59874L240.622 2.28458ZM244.102 4.26708L243.182 5.34046L243.199 5.35448L243.215 5.36802L244.102 4.26708ZM246.199 6.54882L244.999 7.29809L245.007 7.31137L245.015 7.32447L246.199 6.54882ZM247.247 8.94278L245.865 9.24489L245.867 9.25417L247.247 8.94278ZM247.546 11.0749H248.961V11.0477L248.959 11.0206L247.546 11.0749ZM247.546 11.1123V12.526H248.961V11.1123H247.546ZM236.468 11.1123L235.107 11.5007L235.4 12.526H236.468V11.1123ZM236.056 10.2894L234.79 10.9216L234.815 10.9702L234.843 11.0167L236.056 10.2894ZM234.821 9.0924L235.584 7.90167L234.821 9.0924ZM232.125 8.04504L231.769 9.413L231.776 9.41482L232.125 8.04504ZM222.769 8.15726L222.362 6.80314L222.354 6.80546L222.769 8.15726ZM219.812 9.69089L220.735 10.7616L220.738 10.7592L219.812 9.69089ZM218.278 11.8604L219.606 12.3435L218.278 11.8604ZM218.351 17.5087L217.044 18.047L217.05 18.0608L218.351 17.5087ZM219.998 19.753L219.053 20.8037L219.071 20.8203L219.089 20.8362L219.998 19.753ZM222.955 21.3241L222.508 22.6652L222.517 22.6679L222.955 21.3241ZM231.864 21.5111L231.553 20.1316L231.548 20.133L231.864 21.5111ZM234.821 20.5386L235.453 21.803L235.469 21.7946L235.486 21.7859L234.821 20.5386ZM236.392 19.3789L235.294 18.4875L235.288 18.4958L236.392 19.3789ZM236.88 18.4438H238.294V17.0301H236.88V18.4438ZM227.11 18.4438H225.695V19.8575H227.11V18.4438ZM227.11 13.02V11.6063H225.695V13.02H227.11ZM247.733 13.02H249.147V11.6063H247.733V13.02ZM247.733 28.6928V30.1067H249.147V28.6928H247.733ZM241.034 28.6928L239.653 28.9996L239.899 30.1067H241.034V28.6928ZM240.808 27.87L239.426 28.1662L239.438 28.2266L239.457 28.2858L240.808 27.87ZM240.509 26.8227L239.167 27.2697L239.173 27.284L239.177 27.2981L240.509 26.8227ZM240.098 25.7379L238.766 26.2134L238.78 26.2546L238.798 26.2948L240.098 25.7379ZM239.724 24.8402L240.989 24.2078L240.069 22.3708L238.681 23.8849L239.724 24.8402ZM238.414 26.0371L239.319 27.1232L238.414 26.0371ZM235.943 27.4959L236.501 28.7954L236.514 28.7898L236.526 28.784L235.943 27.4959ZM232.05 28.6928L231.74 27.3139L232.05 28.6928ZM225.613 27.8028C223.142 27.8028 221.015 27.5968 219.219 27.2003L218.609 29.9612C220.654 30.4125 222.993 30.6302 225.613 30.6302V27.8028ZM219.222 27.2011C217.412 26.7964 215.879 26.2692 214.605 25.633L213.34 28.1619C214.861 28.9223 216.622 29.5171 218.605 29.9603L219.222 27.2011ZM214.623 25.6421C213.33 24.9725 212.294 24.2305 211.492 23.429L209.492 25.4283C210.536 26.4722 211.821 27.3761 213.322 28.1529L214.623 25.6421ZM211.519 23.4564C210.702 22.5936 210.057 21.701 209.574 20.7802L207.068 22.0922C207.683 23.2662 208.487 24.3685 209.465 25.401L211.519 23.4564ZM209.574 20.7802C209.081 19.8393 208.741 18.9021 208.545 17.9671L205.776 18.5463C206.029 19.7559 206.464 20.9384 207.068 22.0922L209.574 20.7802ZM208.545 17.9671C208.338 16.9783 208.239 16.0534 208.239 15.1895H205.41C205.41 16.2707 205.534 17.3906 205.776 18.5463L208.545 17.9671ZM208.239 15.1895V14.1422H205.41V15.1895H208.239ZM208.239 14.1422C208.239 13.239 208.329 12.2909 208.514 11.2961L205.733 10.7789C205.519 11.9286 205.41 13.0503 205.41 14.1422H208.239ZM208.507 11.3271C208.704 10.3946 209.041 9.47429 209.531 8.56385L207.037 7.22698C206.428 8.3614 205.993 9.53576 205.739 10.7479L208.507 11.3271ZM209.531 8.56385C210 7.69006 210.65 6.84813 211.502 6.04148L209.556 3.9889C208.512 4.97772 207.665 6.05595 207.037 7.22698L209.531 8.56385ZM211.516 6.02808C212.335 5.23155 213.4 4.50271 214.737 3.85695L213.508 1.31071C211.952 2.06142 210.621 2.95351 209.542 4.0023L211.516 6.02808ZM214.729 3.86101C216.073 3.22413 217.701 2.70689 219.636 2.3249L219.088 -0.448932C216.982 -0.0329233 215.117 0.547061 213.516 1.30664L214.729 3.86101ZM219.634 2.32553C221.567 1.94842 223.869 1.75322 226.548 1.75322V-1.07422C223.74 -1.07422 221.25 -0.870423 219.092 -0.449565L219.634 2.32553ZM226.548 1.75322H228.009V-1.07422H226.548V1.75322ZM228.009 1.75322C230.8 1.75322 233.161 1.92492 235.106 2.25673L235.582 -0.530377C233.435 -0.896801 230.906 -1.07422 228.009 -1.07422V1.75322ZM235.109 2.2572C237.108 2.59422 238.759 3.0441 240.082 3.59088L241.163 0.978288C239.59 0.328096 237.722 -0.169635 235.579 -0.530849L235.109 2.2572ZM240.1 3.59874C241.45 4.13365 242.461 4.72297 243.182 5.34046L245.024 3.1937C243.998 2.31497 242.688 1.58263 241.144 0.970427L240.1 3.59874ZM243.215 5.36802C244.017 6.01368 244.601 6.66015 244.999 7.29809L247.399 5.79955C246.799 4.84151 245.984 3.96682 244.99 3.16614L243.215 5.36802ZM245.015 7.32447C245.461 8.00198 245.732 8.64141 245.865 9.24489L248.628 8.64067C248.411 7.64817 247.985 6.69162 247.381 5.77318L245.015 7.32447ZM245.867 9.25417C246.026 9.96053 246.111 10.5839 246.132 11.1292L248.959 11.0206C248.93 10.2692 248.816 9.47111 248.627 8.63139L245.867 9.25417ZM246.132 11.0749V11.1123H248.961V11.0749H246.132ZM247.546 9.69858H236.468V12.526H247.546V9.69858ZM237.828 10.7239C237.721 10.3517 237.492 9.93546 237.268 9.56202L234.843 11.0167C234.943 11.1845 235.014 11.3134 235.062 11.4079C235.114 11.5124 235.117 11.5352 235.107 11.5007L237.828 10.7239ZM237.321 9.65715C236.955 8.92564 236.295 8.35738 235.584 7.90167L234.058 10.2831C234.592 10.6254 234.757 10.8551 234.79 10.9216L237.321 9.65715ZM235.584 7.90167C234.778 7.3863 233.714 6.99131 232.475 6.67526L231.776 9.41482C232.883 9.69726 233.616 10.0005 234.058 10.2831L235.584 7.90167ZM232.483 6.6771C231.166 6.33407 229.471 6.18246 227.446 6.18246V9.0099C229.366 9.0099 230.789 9.15752 231.769 9.41297L232.483 6.6771ZM227.446 6.18246C225.493 6.18246 223.785 6.37646 222.362 6.80316L223.175 9.51135C224.247 9.18995 225.659 9.0099 227.446 9.0099V6.18246ZM222.354 6.80546C220.995 7.22115 219.82 7.81329 218.885 8.62256L220.738 10.7592C221.301 10.2718 222.096 9.84148 223.182 9.50906L222.354 6.80546ZM218.887 8.62012C217.998 9.38684 217.337 10.3068 216.948 11.3773L219.606 12.3435C219.816 11.7682 220.178 11.2418 220.735 10.7616L218.887 8.62012ZM216.948 11.3773C216.589 12.3632 216.414 13.4003 216.414 14.4789H219.242C219.242 13.712 219.366 13.0034 219.606 12.3435L216.948 11.3773ZM216.414 14.4789V14.8903H219.242V14.4789H216.414ZM216.414 14.8903C216.414 15.9766 216.625 17.032 217.044 18.0469L219.66 16.9704C219.379 16.2895 219.242 15.5993 219.242 14.8903H216.414ZM217.05 18.0608C217.49 19.0966 218.169 20.0097 219.053 20.8037L220.945 18.7022C220.331 18.1497 219.913 17.5666 219.655 16.9565L217.05 18.0608ZM219.089 20.8362C220.029 21.6235 221.183 22.2236 222.508 22.6652L223.404 19.9829C222.333 19.6266 221.516 19.1792 220.907 18.6698L219.089 20.8362ZM222.517 22.6679C223.92 23.1258 225.549 23.3362 227.373 23.3362V20.5088C225.752 20.5088 224.437 20.3203 223.395 19.9801L222.517 22.6679ZM227.373 23.3362C229.231 23.3362 230.843 23.1952 232.18 22.889L231.548 20.133C230.49 20.3755 229.106 20.5088 227.373 20.5088V23.3362ZM232.173 22.8904C233.459 22.6021 234.565 22.2468 235.453 21.803L234.187 19.274C233.579 19.5783 232.714 19.8713 231.553 20.1316L232.173 22.8904ZM235.486 21.7859C236.294 21.3555 237.019 20.8601 237.496 20.2621L235.288 18.4958C235.167 18.646 234.844 18.9235 234.155 19.2911L235.486 21.7859ZM237.491 20.2704C237.688 20.0274 237.872 19.7679 238.013 19.4981C238.145 19.2437 238.294 18.8759 238.294 18.4438H235.464C235.464 18.3319 235.485 18.2536 235.494 18.2194C235.506 18.1845 235.513 18.1749 235.503 18.1936C235.493 18.2115 235.474 18.2458 235.437 18.2977C235.403 18.3492 235.355 18.4122 235.294 18.4875L237.491 20.2704ZM236.88 17.0301H227.11V19.8575H236.88V17.0301ZM228.525 18.4438V13.02H225.695V18.4438H228.525ZM227.11 14.4336H247.733V11.6063H227.11V14.4336ZM246.318 13.02V28.6928H249.147V13.02H246.318ZM247.733 27.2791H241.034V30.1067H247.733V27.2791ZM242.415 28.3862C242.354 28.1123 242.267 27.7992 242.162 27.4542L239.457 28.2858C239.55 28.5891 239.614 28.8246 239.653 28.9996L242.415 28.3862ZM242.192 27.5738C242.104 27.1616 241.986 26.7527 241.841 26.3471L239.177 27.2981C239.283 27.5909 239.365 27.8802 239.426 28.1662L242.192 27.5738ZM241.851 26.3756C241.715 25.9658 241.564 25.5674 241.399 25.1809L238.798 26.2948C238.932 26.6066 239.054 26.9315 239.167 27.2697L241.851 26.3756ZM241.431 25.2624C241.291 24.8759 241.145 24.5216 240.989 24.2078L238.458 25.4724C238.55 25.6574 238.655 25.9015 238.766 26.2134L241.431 25.2624ZM238.681 23.8849C238.472 24.1127 238.094 24.4631 237.508 24.9511L239.319 27.1232C239.931 26.6135 240.427 26.1661 240.767 25.7955L238.681 23.8849ZM237.508 24.9511C237.041 25.3395 236.342 25.7642 235.361 26.2078L236.526 28.784C237.641 28.28 238.588 27.7322 239.319 27.1232L237.508 24.9511ZM235.386 26.1966C234.442 26.6012 233.232 26.9771 231.74 27.3139L232.362 30.0719C233.963 29.7106 235.35 29.2885 236.501 28.7954L235.386 26.1966ZM231.74 27.3139C230.324 27.6332 228.575 27.8028 226.473 27.8028V30.6302C228.715 30.6302 230.683 30.4508 232.362 30.0719L231.74 27.3139ZM226.473 27.8028H225.613V30.6302H226.473V27.8028ZM281.949 0.863175H283.364V-0.550542H281.949V0.863175ZM281.949 7.67099V9.08471H283.364V7.67099H281.949ZM261.625 7.67099V6.25727H260.211V7.67099H261.625ZM261.625 11.1497H260.211V12.5634H261.625V11.1497ZM281.537 11.1497H282.953V9.73599H281.537V11.1497ZM281.537 17.9201V19.3338H282.953V17.9201H281.537ZM261.625 17.9201V16.5064H260.211V17.9201H261.625ZM261.625 21.7355H260.211V23.1492H261.625V21.7355ZM282.249 21.7355H283.663V20.3218H282.249V21.7355ZM282.249 28.6928V30.1067H283.663V28.6928H282.249ZM251.146 28.6928H249.732V30.1067H251.146V28.6928ZM251.146 0.863175V-0.550542H249.732V0.863175H251.146ZM280.535 0.863175V7.67099H283.364V0.863175H280.535ZM281.949 6.25727H261.625V9.08471H281.949V6.25727ZM260.211 7.67099V11.1497H263.041V7.67099H260.211ZM261.625 12.5634H281.537V9.73599H261.625V12.5634ZM280.123 11.1497V17.9201H282.953V11.1497H280.123ZM281.537 16.5064H261.625V19.3338H281.537V16.5064ZM260.211 17.9201V21.7355H263.041V17.9201H260.211ZM261.625 23.1492H282.249V20.3218H261.625V23.1492ZM280.834 21.7355V28.6928H283.663V21.7355H280.834ZM282.249 27.2791H251.146V30.1067H282.249V27.2791ZM252.561 28.6928V0.863175H249.732V28.6928H252.561ZM251.146 2.27689H281.949V-0.550542H251.146V2.27689Z" fill="black"/>
</svg>
